<?xml version="1.0" encoding="utf-8"?>
<!-- Svg Vector Icons : http://www.onlinewebfonts.com/icon -->
<!DOCTYPE svg PUBLIC "-//W3C//DTD SVG 1.1//EN" "http://www.w3.org/Graphics/SVG/1.1/DTD/svg11.dtd">
<svg version="1.1" xmlns="http://www.w3.org/2000/svg" xmlns:xlink="http://www.w3.org/1999/xlink" x="0px" y="0px" viewBox="0 0 1000 1000" enable-background="new 0 0 1000 1000" xml:space="preserve" fill="#343c3c">
<metadata> Svg Vector Icons : http://www.onlinewebfonts.com/icon </metadata>
<g><path d="M871.3,716.2c-42.9-56-94.7-92.3-169-112.9l-69.6,243.8c0,22.4-18.4,40.8-40.8,40.8c-22.4,0-40.8-18.4-40.8-40.8v-194c0-28.2-22.9-51.1-51.1-51.1c-28.2,0-51.1,22.9-51.1,51.1v194c0,22.4-18.4,40.8-40.8,40.8c-22.4,0-40.8-18.4-40.8-40.8l-69.6-243.8c-74.3,20.8-126.2,56.9-169.1,112.9c-16.9,22.1-26.1,66.4-26.7,90v102.1c0,45.1,36.5,81.7,81.7,81.7h632.9c45.1,0,81.7-36.5,81.7-81.7V806.2C897.5,782.6,888.3,738.3,871.3,716.2L871.3,716.2z M499.9,520.4c137.6,0,214.4-175.2,214.4-294.4c0-119.2-96-216-214.4-216s-214.4,96.8-214.4,216C285.5,345.2,359.9,520.4,499.9,520.4z"/></g>
</svg>